<?xml version="1.0" encoding="utf-8"?>
<!-- Generator: Adobe Illustrator 28.2.0, SVG Export Plug-In . SVG Version: 6.00 Build 0)  -->
<svg version="1.1" id="Layer_1" xmlns="http://www.w3.org/2000/svg" xmlns:xlink="http://www.w3.org/1999/xlink" x="0px" y="0px"
	 viewBox="0 0 256 256" style="enable-background:new 0 0 256 256;" xml:space="preserve">
<style type="text/css">
	.st0{fill:#CFE5AF;}
	.st1{fill:#133742;}
</style>
<g>
	<g>
		<path class="st0" d="M37,70.8c-0.9-2.1-1.4-4.4-1.1-6.7c1-6.7,8.1-9.4,14-10.1c8.9-1.1,17.9-1.3,26.8-0.5c2.3,0.2,4.7,0.5,6.6,1.7
			c2.9,1.9,4.1,5.3,5.4,8.3c1.4,3.3,3.5,6.3,5.2,9.5c1.9,3.4,3.9,6.8,5.9,10.2c0.2,0.4,2.2,4.6,2.7,4.6c8.2,0,51.2-0.6,51.2-0.6
			c-2.5-8.5-11.4-23-12.9-27.7c-2.3-7.4,63.4-10.2,69.4,3.4c5.4,12.3,3.5,28.5-6,28.8c-9.5,0.3-0.4,13.5,13.8,14.4
			c14.2,0.9,37.4,26.5,35.6,47c-1.6,17.8-6.7,39-34.2,47.5c-27.5,8.5-50.5-4.8-62.8-24c-12.3-19.3-18.3-10-27.2-10.3
			c-8.9-0.3-22.4-25.4-27.8-3.3c-3,12-12.8,35.9-38.7,39.2c-25.9,3.2-44.8-3.9-55.9-28.9c-11.1-24.9,0.4-47.5,8.4-55.2
			c7-6.7,20.4-18.3,46.7-14.5c7.5,1.1,9.5-7.1,8-12.9c-1.5-5.4-5.4-9.2-10.6-11.1c-2.6-1-5.3-1.5-8-1.9c-3.2-0.5-7.1,0.1-10-1.5
			c-1.6-0.9-2.7-2.3-3.6-3.9C37.5,71.8,37.2,71.3,37,70.8L37,70.8z"/>
		<path class="st1" d="M202.8,110.1c-6.7,0-13,1.5-18.7,4.3l-12.6-20.8l0,0l-15.4-27.7c7.6-0.5,24.9-1.4,35.7,0.3
			c3.7,0.6,6.5,2.1,8.1,4.4c2.6,3.7,1.7,8.6,1.7,8.7l2.4,0.5l2.4,0.5c0.1-0.3,1.3-6.9-2.5-12.4c-2.4-3.5-6.2-5.6-11.4-6.4
			c-14.7-2.3-39.6-0.1-40.6,0l-3.7,0.3l17.1,30.6H98.4l-17.7-31H49.2v4.9h28.6l16.3,28.4l-16.9,23.1c-6.9-4.8-15.3-7.6-24.3-7.6
			C29.2,110.1,10,129.3,10,153c0,23.6,19.3,42.9,42.9,42.9c23.7,0,42.9-19.2,42.9-42.9c0-12.9-5.7-24.4-14.8-32.3l15.7-21.5
			l32.7,57.1l4.2-2.4l-32.5-56.7H168l11.8,19.6c-12,7.6-20,21-20,36.2c0,23.6,19.3,42.9,42.9,42.9c23.7,0,42.9-19.2,42.9-42.9
			C245.7,129.3,226.4,110.1,202.8,110.1z M91,153c0,21-17.1,38-38.1,38s-38.1-17.1-38.1-38s17.1-38,38.1-38c8,0,15.4,2.5,21.5,6.6
			l-23.4,32.1l3.9,2.9l23.3-31.9C86,131.5,91,141.7,91,153z M202.8,191c-21,0-38.1-17.1-38.1-38c0-13.5,7.1-25.3,17.7-32.1
			l21.4,35.4l4.2-2.5l-21.3-35.3c4.9-2.3,10.4-3.6,16.2-3.6c21,0,38.1,17.1,38.1,38S223.8,191,202.8,191z"/>
	</g>
</g>
</svg>
